# Blender v2.76 (sub 0) OBJ File: 'modular_robot.blend'
# www.blender.org
mtllib bottom.mtl
o Plane
v -0.029000 0.035000 0.022000
v 0.029000 0.035000 0.022000
v -0.029000 0.038000 0.022000
v 0.029000 0.038000 0.022000
v -0.029000 0.035000 -0.036000
v 0.029000 0.035000 -0.036000
v -0.029000 0.038000 -0.036000
v 0.029000 0.038000 -0.036000
v 0.004000 0.035000 0.019000
v 0.007000 0.035000 0.019000
v 0.004000 0.018778 -0.033000
v 0.007000 0.018778 -0.033000
v 0.004000 0.035000 -0.033000
v 0.007000 0.035000 -0.033000
v 0.004000 -0.016604 0.002505
v 0.004000 -0.009157 0.019000
v 0.004000 -0.018239 0.005173
v 0.004000 -0.018969 0.008215
v 0.004000 -0.018723 0.011334
v 0.004000 -0.017910 0.013540
v 0.004000 -0.016604 0.015494
v 0.004000 -0.014878 0.017090
v 0.007000 -0.009157 0.019000
v 0.007000 -0.016604 0.002505
v 0.007000 -0.014878 0.017090
v 0.007000 -0.016604 0.015494
v 0.007000 -0.017910 0.013540
v 0.007000 -0.018723 0.011334
v 0.007000 -0.018969 0.008215
v 0.007000 -0.018239 0.005173
v 0.004000 -0.012090 0.018510
v 0.007000 -0.012090 0.018510
v 0.004000 0.014495 -0.028637
v 0.004000 -0.014142 0.000000
v 0.007000 0.014495 -0.028637
v 0.007000 -0.014142 0.000000
v 0.004000 0.028637 -0.014496
v 0.004000 -0.000000 0.014142
v 0.007000 0.028637 -0.014496
v 0.007000 -0.000000 0.014142
v -0.029000 0.035000 0.019000
v -0.026000 0.035000 0.019000
v -0.029000 0.035000 -0.033000
v -0.026000 0.035000 -0.033000
v -0.026000 0.033000 0.019000
v -0.029000 0.033000 0.019000
v -0.026000 0.033000 -0.033000
v -0.029000 0.033000 -0.033000
v -0.028722 -0.002269 -0.010963
v -0.029000 0.000330 0.010876
v -0.026000 -0.003459 0.009899
v -0.026000 0.000330 0.010876
v -0.025722 -0.002269 -0.010963
v -0.029000 -0.003459 0.009899
v -0.029000 -0.008818 -0.005686
v -0.029000 -0.006761 0.008190
v -0.029000 -0.010064 -0.002971
v -0.029000 -0.010500 -0.000687
v -0.029000 -0.010328 0.001841
v -0.029000 -0.009609 0.004270
v -0.029000 -0.008392 0.006436
v -0.026000 -0.006761 0.008190
v -0.026000 -0.008818 -0.005686
v -0.026000 -0.008392 0.006436
v -0.026000 -0.009609 0.004270
v -0.026000 -0.010328 0.001841
v -0.026000 -0.010500 -0.000687
v -0.026000 -0.010064 -0.002971
v -0.029000 -0.006360 -0.008349
v -0.026000 -0.006360 -0.008349
vn 0.000000 0.000000 1.000000
vn 0.000000 0.000000 -1.000000
vn 1.000000 0.000000 0.000000
vn -1.000000 0.000000 0.000000
vn 0.000000 1.000000 0.000000
vn 0.000000 -1.000000 0.000000
vn 0.000000 -0.713600 -0.700600
vn 0.000000 -0.852600 -0.522500
vn -0.000000 -0.972400 -0.233400
vn -0.000000 -0.996900 0.078500
vn -0.000000 -0.938200 0.346100
vn -0.000000 -0.831500 0.555600
vn 0.000000 -0.678800 0.734300
vn 0.000000 -0.164600 0.986400
vn 0.000000 -0.454000 0.891000
vn 0.000000 -0.713300 -0.700900
vn 0.000000 -0.707100 0.707100
vn 0.000000 -0.707100 -0.707100
vn 0.000000 0.707100 -0.707100
vn 0.000000 -0.459600 0.888100
vn 0.000000 -0.529900 -0.848100
vn 0.000000 -0.249800 0.968300
vn 0.000000 -0.538500 -0.842600
vn 1.000000 0.002400 0.003900
vn 0.000000 -0.241300 0.970500
vn 0.000000 -0.908900 -0.417000
vn 0.000000 -0.982200 -0.187700
vn 0.000000 -0.997700 0.067900
vn 0.000000 -0.958900 0.283700
vn 0.000000 -0.871800 0.489800
vn 0.000000 -0.732200 0.681100
vn -1.000000 -0.002400 -0.003900
vn 0.000000 -0.734700 -0.678400
usemtl None
s off
f 1//1 2//1 4//1 3//1
f 5//2 7//2 8//2 6//2
f 2//3 6//3 8//3 4//3
f 3//4 7//4 5//4 1//4
f 4//5 8//5 7//5 3//5
f 1//6 5//6 6//6 2//6
f 33//7 11//7 12//7 35//7
f 11//2 13//2 14//2 12//2
f 10//5 14//5 13//5 9//5
f 22//4 31//4 38//4
f 16//1 23//1 10//1 9//1
f 15//8 24//8 30//8 17//8
f 17//9 30//9 29//9 18//9
f 18//10 29//10 28//10 19//10
f 19//11 28//11 27//11 20//11
f 20//12 27//12 26//12 21//12
f 21//13 26//13 25//13 22//13
f 31//14 32//14 23//14 16//14
f 31//4 16//4 38//4
f 22//15 25//15 32//15 31//15
f 15//16 34//16 36//16 24//16
f 33//17 35//17 39//17 37//17
f 38//18 37//18 39//18 40//18
f 23//3 40//3 10//3
f 38//4 16//4 9//4
f 36//19 34//19 38//19 40//19
f 21//4 22//4 38//4
f 19//4 20//4 34//4
f 18//4 19//4 34//4
f 17//4 18//4 34//4
f 15//4 17//4 34//4
f 20//4 21//4 34//4
f 38//4 34//4 21//4
f 25//3 26//3 40//3
f 32//3 25//3 40//3
f 23//3 32//3 40//3
f 26//3 27//3 36//3
f 27//3 28//3 36//3
f 28//3 29//3 36//3
f 29//3 30//3 36//3
f 24//3 36//3 30//3
f 40//3 26//3 36//3
f 40//3 39//3 10//3
f 35//3 12//3 39//3
f 14//3 39//3 12//3
f 10//3 39//3 14//3
f 38//4 9//4 37//4
f 33//4 37//4 11//4
f 11//4 37//4 13//4
f 9//4 13//4 37//4
f 42//5 44//5 43//5 41//5
f 51//20 54//20 56//20 62//20
f 43//4 48//4 46//4 41//4
f 44//2 47//2 48//2 43//2
f 42//3 45//3 47//3 44//3
f 41//1 46//1 45//1 42//1
f 47//21 53//21 49//21 48//21
f 52//22 50//22 54//22 51//22
f 70//23 69//23 49//23 53//23
f 45//24 52//24 51//24 62//24 64//24 65//24 66//24 67//24 68//24 63//24 70//24 53//24 47//24
f 46//25 50//25 52//25 45//25
f 55//26 63//26 68//26 57//26
f 57//27 68//27 67//27 58//27
f 58//28 67//28 66//28 59//28
f 59//29 66//29 65//29 60//29
f 60//30 65//30 64//30 61//30
f 61//31 64//31 62//31 56//31
f 48//32 49//32 69//32 55//32 57//32 58//32 59//32 60//32 61//32 56//32 54//32 50//32 46//32
f 63//33 55//33 69//33 70//33
