# Blender v2.76 (sub 0) OBJ File: 'modular_robot.blend'
# www.blender.org
mtllib upper.mtl
o Plane.001
v 0.019500 -0.035000 0.019000
v 0.019500 -0.035000 -0.033000
v 0.022500 -0.035000 -0.033000
v 0.022500 -0.035000 0.019000
v 0.022500 -0.033000 0.019000
v 0.019500 -0.033000 0.019000
v 0.019500 -0.033000 -0.033000
v 0.022500 -0.033000 -0.033000
v 0.022500 -0.000330 0.010876
v 0.019500 -0.000330 0.010876
v 0.019500 0.008818 -0.005686
v 0.019500 0.006360 -0.008349
v 0.019222 0.002269 -0.010963
v 0.019489 -0.003338 0.000000
v 0.019483 -0.003084 -0.001277
v 0.019477 -0.002360 -0.002360
v 0.019472 -0.001277 -0.003084
v 0.019468 -0.000000 -0.003338
v 0.019466 0.001277 -0.003084
v 0.019466 0.002360 -0.002360
v 0.019468 0.003084 -0.001277
v 0.019473 0.003338 0.000000
v 0.019500 0.003459 0.009899
v 0.019500 0.006761 0.008190
v 0.019500 0.008392 0.006436
v 0.019500 0.009609 0.004270
v 0.019500 0.010328 0.001841
v 0.019500 0.010500 -0.000687
v 0.019500 0.010064 -0.002971
v 0.019478 0.003084 0.001277
v 0.019484 0.002360 0.002360
v 0.019489 0.001277 0.003084
v 0.019493 -0.000000 0.003338
v 0.019496 -0.001277 0.003084
v 0.019495 -0.002360 0.002360
v 0.019493 -0.003084 0.001277
v 0.022222 0.002269 -0.010963
v 0.022500 0.008392 0.006436
v 0.022500 0.006761 0.008190
v 0.022500 0.003459 0.009899
v 0.022489 -0.003338 0.000000
v 0.022493 -0.003084 0.001277
v 0.022495 -0.002360 0.002360
v 0.022496 -0.001277 0.003084
v 0.022493 -0.000000 0.003338
v 0.022489 0.001277 0.003084
v 0.022484 0.002360 0.002360
v 0.022478 0.003084 0.001277
v 0.022472 0.003338 0.000000
v 0.022500 0.010328 0.001841
v 0.022500 0.009609 0.004270
v 0.022468 0.003084 -0.001277
v 0.022466 0.002360 -0.002360
v 0.022466 0.001277 -0.003084
v 0.022468 -0.000000 -0.003338
v 0.022472 -0.001277 -0.003084
v 0.022477 -0.002360 -0.002360
v 0.022483 -0.003084 -0.001277
v 0.022500 0.006360 -0.008349
v 0.022500 0.008818 -0.005686
v 0.022500 0.010064 -0.002971
v 0.022500 0.010500 -0.000687
v -0.025000 -0.035000 0.019000
v -0.025000 -0.035000 -0.033000
v -0.022000 -0.035000 -0.033000
v -0.022000 -0.035000 0.019000
v -0.022000 -0.033000 0.019000
v -0.025000 -0.033000 0.019000
v -0.025000 -0.033000 -0.033000
v -0.022000 -0.033000 -0.033000
v -0.022000 -0.000330 0.010876
v -0.025000 -0.000330 0.010876
v -0.025000 0.003459 0.009899
v -0.025000 0.006761 0.008190
v -0.025000 0.008392 0.006436
v -0.025000 0.009609 0.004270
v -0.025000 0.010328 0.001841
v -0.025000 0.010500 -0.000687
v -0.025000 0.010064 -0.002971
v -0.025000 0.008818 -0.005686
v -0.025000 0.006360 -0.008349
v -0.025278 0.002269 -0.010963
v -0.022278 0.002269 -0.010963
v -0.022000 0.006360 -0.008349
v -0.022000 0.008818 -0.005686
v -0.022000 0.010064 -0.002971
v -0.022000 0.010500 -0.000687
v -0.022000 0.010328 0.001841
v -0.022000 0.009609 0.004270
v -0.022000 0.008392 0.006436
v -0.022000 0.006761 0.008190
v -0.022000 0.003459 0.009899
v -0.029000 -0.038000 0.022000
v 0.029000 -0.038000 0.022000
v 0.029000 -0.035000 0.022000
v -0.029000 -0.035000 0.022000
v -0.029000 -0.035000 -0.036000
v -0.029000 -0.038000 -0.036000
v 0.029000 -0.038000 -0.036000
v 0.029000 -0.035000 -0.036000
vn 0.000000 -1.000000 0.000000
vn 0.000000 0.000000 1.000000
vn -1.000000 0.000000 -0.000000
vn 0.000000 0.000000 -1.000000
vn 1.000000 0.000000 0.000000
vn 0.000000 0.241300 0.970500
vn -1.000000 -0.002900 0.004400
vn -1.000000 0.000100 0.001000
vn 0.000000 0.529900 -0.848100
vn 1.000000 -0.000400 -0.001200
vn 1.000000 0.003100 -0.004500
vn -0.000000 0.249800 0.968300
vn -0.000000 0.459600 0.888100
vn -0.000000 0.732200 0.681100
vn -0.000000 0.871800 0.489800
vn -0.000000 0.958900 0.283700
vn -0.000000 0.997700 0.067900
vn -0.000000 0.982200 -0.187700
vn -0.000000 0.908900 -0.417000
vn -0.000000 0.734700 -0.678400
vn 0.000000 0.538500 -0.842600
vn -0.000000 -0.980800 0.195100
vn 0.000000 -0.980800 -0.195100
vn -0.000000 -0.831500 0.555600
vn 0.000000 -0.831500 -0.555600
vn -0.000000 -0.555600 0.831500
vn 0.000000 -0.555600 -0.831500
vn -0.000000 -0.195100 0.980800
vn 0.000000 -0.195100 -0.980800
vn -0.000000 0.195100 0.980800
vn 0.000000 0.195100 -0.980800
vn -0.000000 0.555600 0.831500
vn 0.000000 0.555600 -0.831500
vn -0.000000 0.831500 0.555600
vn 0.000000 0.831500 -0.555600
vn -0.000000 0.980800 0.195100
vn 0.000000 0.980800 -0.195100
vn -1.000000 -0.002400 0.003900
vn 1.000000 0.002400 -0.003900
vn 0.000000 1.000000 0.000000
usemtl None
s off
f 1//1 2//1 3//1 4//1
f 4//2 5//2 6//2 1//2
f 1//3 6//3 7//3 2//3
f 2//4 7//4 8//4 3//4
f 3//5 8//5 5//5 4//5
f 5//6 9//6 10//6 6//6
f 11//7 12//7 13//7 7//7 6//7 14//7 15//7 16//7 17//7 18//7 19//7 20//7 21//7 22//7 23//7 24//7 25//7 26//7 27//7 28//7 29//7
f 6//8 10//8 23//8 22//8 30//8 31//8 32//8 33//8 34//8 35//8 36//8 14//8
f 7//9 13//9 37//9 8//9
f 38//10 39//10 40//10 9//10 5//10 41//10 42//10 43//10 44//10 45//10 46//10 47//10 48//10 49//10 50//10 51//10
f 50//11 49//11 52//11 53//11 54//11 55//11 56//11 57//11 58//11 41//11 5//11 8//11 37//11 59//11 60//11 61//11 62//11
f 10//12 9//12 40//12 23//12
f 23//13 40//13 39//13 24//13
f 38//14 25//14 24//14 39//14
f 51//15 26//15 25//15 38//15
f 50//16 27//16 26//16 51//16
f 62//17 28//17 27//17 50//17
f 61//18 29//18 28//18 62//18
f 60//19 11//19 29//19 61//19
f 11//20 60//20 59//20 12//20
f 12//21 59//21 37//21 13//21
f 22//22 21//22 52//22 49//22
f 30//23 22//23 49//23 48//23
f 21//24 20//24 53//24 52//24
f 31//25 30//25 48//25 47//25
f 20//26 19//26 54//26 53//26
f 32//27 31//27 47//27 46//27
f 19//28 18//28 55//28 54//28
f 33//29 32//29 46//29 45//29
f 18//30 17//30 56//30 55//30
f 34//31 33//31 45//31 44//31
f 17//32 16//32 57//32 56//32
f 35//33 34//33 44//33 43//33
f 16//34 15//34 58//34 57//34
f 36//35 35//35 43//35 42//35
f 15//36 14//36 41//36 58//36
f 14//37 36//37 42//37 41//37
f 63//1 64//1 65//1 66//1
f 66//2 67//2 68//2 63//2
f 63//3 68//3 69//3 64//3
f 64//4 69//4 70//4 65//4
f 65//5 70//5 67//5 66//5
f 67//6 71//6 72//6 68//6
f 68//38 72//38 73//38 74//38 75//38 76//38 77//38 78//38 79//38 80//38 81//38 82//38 69//38
f 69//9 82//9 83//9 70//9
f 70//39 83//39 84//39 85//39 86//39 87//39 88//39 89//39 90//39 91//39 92//39 71//39 67//39
f 72//12 71//12 92//12 73//12
f 73//13 92//13 91//13 74//13
f 90//14 75//14 74//14 91//14
f 89//15 76//15 75//15 90//15
f 88//16 77//16 76//16 89//16
f 87//17 78//17 77//17 88//17
f 86//18 79//18 78//18 87//18
f 85//19 80//19 79//19 86//19
f 80//20 85//20 84//20 81//20
f 81//21 84//21 83//21 82//21
f 93//2 94//2 95//2 96//2
f 96//3 97//3 98//3 93//3
f 93//1 98//1 99//1 94//1
f 94//5 99//5 100//5 95//5
f 95//40 100//40 97//40 96//40
f 98//4 97//4 100//4 99//4
